<?xml version="1.0" encoding="UTF-8" standalone="no"?>
<!-- Created with Inkscape (http://www.inkscape.org/) -->

<svg
   width="211.63mm"
   height="96.991mm"
   viewBox="0 0 211.63 96.991"
   version="1.1"
   id="svg1029"
   inkscape:version="1.1.2 (b8e25be833, 2022-02-05)"
   sodipodi:docname="k0803_2.svg"
   xmlns:inkscape="http://www.inkscape.org/namespaces/inkscape"
   xmlns:sodipodi="http://sodipodi.sourceforge.net/DTD/sodipodi-0.dtd"
   xmlns="http://www.w3.org/2000/svg"
   xmlns:svg="http://www.w3.org/2000/svg">
  <sodipodi:namedview
     id="namedview1031"
     pagecolor="#ffffff"
     bordercolor="#666666"
     borderopacity="1.0"
     inkscape:pageshadow="2"
     inkscape:pageopacity="0.0"
     inkscape:pagecheckerboard="0"
     inkscape:document-units="mm"
     showgrid="false"
     inkscape:zoom="0.64052329"
     inkscape:cx="396.55076"
     inkscape:cy="561.25984"
     inkscape:window-width="1920"
     inkscape:window-height="1121"
     inkscape:window-x="-9"
     inkscape:window-y="-9"
     inkscape:window-maximized="1"
     inkscape:current-layer="layer1" />
  <defs
     id="defs1026" />
  <g
     inkscape:label="Layer 1"
     inkscape:groupmode="layer"
     id="layer1">
    <g
       id="g946"
       transform="matrix(-0.26135151,-0.04122774,-0.04122774,0.26135151,214.43866,31.242166)">
      <path
         class="st0"
         d="m 3.56,52.711 c 7.526,-2.247 0,0 16.532,10.527 16.533,10.514 64.82,10.672 88.661,5.258 33.049,-7.513 49.581,21.04 49.581,21.04 9.02,-15.037 21.042,-15.037 36.813,-12.775 15.784,2.247 36.064,0.753 44.337,-6.018 8.258,-6.758 9.005,0 6.765,19.541 -2.255,19.533 -30.062,45.077 -30.062,45.077 0,0 8.273,1.502 16.518,3.002 8.272,1.509 52.597,-19.533 60.122,-24.789 7.496,-5.256 15.024,-21.788 20.28,-25.544 5.257,-3.756 12.782,10.512 27.059,14.276 14.262,3.756 52.582,0 72.862,-9.767 20.295,-9.774 191.601,-54.097 209.627,-61.608 18.039,-7.52 72.13,-28.553 83.39,-27.8 11.289,0.754 30.793,-3.002 55.597,-2.255 24.805,0.747 24.805,26.299 32.302,40.567 7.527,14.284 2.27,42.83 2.27,93.918 0,72.74 -26.14,88.755 -60.869,92.412 0,0 -1.494,10.52 -15.771,13.529 -14.277,3.002 -93.933,24.037 -109.689,33.048 -0.388,0.216 -0.762,0.425 -1.163,0.647 4.74,8.581 13.702,20.474 27.462,21.897 21.773,2.255 -7.526,14.269 -25.552,9.019 -13.401,-3.914 -24.302,-11.963 -29.028,-19.548 -15.627,5.343 -33.523,9.896 -47.598,11.282 C 383.413,312.404 379.002,318.338 274.039,288.634 234.226,277.359 236.466,259.328 210.182,238.293 183.884,217.251 172.609,170.672 170.369,163.161 168.1,155.642 111.754,129.352 63.668,116.575 15.597,103.806 -3.951,54.973 3.56,52.711 Z"
         id="path944" />
    </g>
  </g>
</svg>
