<?xml version="1.0" encoding="UTF-8" standalone="no"?>
<!-- Created with Inkscape (http://www.inkscape.org/) -->

<svg
   width="238mm"
   height="100.55mm"
   viewBox="0 0 238 100.55"
   version="1.1"
   id="svg5"
   inkscape:version="1.1.2 (b8e25be833, 2022-02-05)"
   sodipodi:docname="open.svg"
   xmlns:inkscape="http://www.inkscape.org/namespaces/inkscape"
   xmlns:sodipodi="http://sodipodi.sourceforge.net/DTD/sodipodi-0.dtd"
   xmlns="http://www.w3.org/2000/svg"
   xmlns:svg="http://www.w3.org/2000/svg">
  <sodipodi:namedview
     id="namedview7"
     pagecolor="#ffffff"
     bordercolor="#666666"
     borderopacity="1.0"
     inkscape:pageshadow="2"
     inkscape:pageopacity="0.0"
     inkscape:pagecheckerboard="0"
     inkscape:document-units="mm"
     showgrid="true"
     inkscape:snap-center="true"
     inkscape:lockguides="false"
     showguides="false"
     inkscape:zoom="0.6405233"
     inkscape:cx="854.76984"
     inkscape:cy="13.270399"
     inkscape:window-width="1902"
     inkscape:window-height="1103"
     inkscape:window-y="0"
     inkscape:window-maximized="0"
     inkscape:current-layer="layer1"
     inkscape:window-x="0"
     units="mm">
    <inkscape:grid
       type="xygrid"
       id="grid14028" />
  </sodipodi:namedview>
  <defs
     id="defs2">
    <rect
       x="-380"
       y="-80"
       width="38.092057"
       height="116.71416"
       id="rect31509" />
    <rect
       x="221"
       y="235"
       width="1"
       height="6"
       id="rect21678" />
    <rect
       x="40"
       y="120"
       width="620"
       height="280"
       id="rect16100" />
  </defs>
  <g
     inkscape:label="Layer 1"
     inkscape:groupmode="layer"
     id="layer1">
    <text
       xml:space="preserve"
       transform="scale(0.26458333)"
       id="text16098"
       style="line-height:1.25;font-family:'Agency FB';font-size:0.66666667px;-inkscape-font-specification:'Agency FB';white-space:pre;shape-inside:url(#rect16100)" />
    <g
       aria-label="OPEN"
       transform="scale(1.1859714,0.84319064)"
       id="text17162"
       style="font-weight:bold;font-size:92.7801px;line-height:1;font-family:Bahnschrift;-inkscape-font-specification:'Bahnschrift Bold';letter-spacing:-7.9375px;stroke-width:0.231952">
      <path
         d="m 24.796311,93.234435 q -7.248446,0 -12.684779,-2.989983 Q 6.7205004,87.209165 3.7305168,81.727529 0.74053318,76.245892 0.74053318,68.952144 V 50.287398 q 0,-7.339051 2.98998362,-12.775385 2.9899836,-5.481637 8.3810152,-8.47162 5.436333,-3.035287 12.684779,-3.035287 7.248445,0 12.639476,3.035287 5.436334,2.989983 8.426317,8.47162 2.989984,5.436334 2.989984,12.775385 v 18.664746 q 0,7.293748 -2.989984,12.775385 -2.989983,5.481636 -8.426317,8.516923 -5.391031,2.989983 -12.639476,2.989983 z m 0,-12.412962 q 5.073911,0 8.109198,-3.171195 3.080589,-3.171195 3.080589,-8.381015 V 49.970278 q 0,-5.255123 -3.080589,-8.381014 -3.035287,-3.171195 -8.109198,-3.171195 -5.073912,0 -8.154501,3.171195 -3.035287,3.125891 -3.035287,8.381014 v 19.298985 q 0,5.20982 3.035287,8.381015 3.080589,3.171195 8.154501,3.171195 z"
         id="path1412" />
      <path
         d="M 58.809187,67.004124 V 55.04419 h 21.065794 q 3.352405,0 5.436333,-2.219837 2.083928,-2.265139 2.083928,-5.934664 v 0 q 0,-3.760131 -2.083928,-5.979967 -2.038625,-2.265139 -5.436333,-2.265139 H 58.809187 V 26.684648 h 20.748674 q 6.251784,0 10.872668,2.536956 4.666186,2.491653 7.248445,7.021931 2.582256,4.530278 2.582256,10.646154 v 0 q 0,6.070573 -2.582256,10.600851 -2.582259,4.530278 -7.248445,7.021931 -4.666187,2.491653 -10.872668,2.491653 z M 53.146339,92.554893 V 26.684648 h 12.412962 v 65.870245 z"
         id="path1414" />
      <path
         d="M 102.06383,92.554893 V 26.684648 h 12.41297 v 65.870245 z m 4.48498,0 V 80.594959 h 39.63993 v 11.959934 z m 0,-26.728641 V 53.866317 h 34.65663 v 11.959935 z m 0,-27.181669 V 26.684648 h 39.63993 v 11.959935 z"
         id="path1416" />
      <path
         d="M 149.57694,92.509591 V 26.684648 h 15.17643 l 24.50881,50.4673 -1.08727,1.177872 V 26.684648 h 11.86933 V 92.509591 H 184.7772 l -24.4182,-49.697152 1.08727,-1.177873 v 50.875025 z"
         id="path1418" />
    </g>
    <text
       xml:space="preserve"
       transform="scale(0.26458333)"
       id="text21676"
       style="line-height:1.25;font-family:'Agency FB';font-size:0.66666667px;-inkscape-font-specification:'Agency FB';white-space:pre;shape-inside:url(#rect21678)" />
    <rect
       style="fill:#999999;stroke:#000000;stroke-width:0.15251499;stroke-miterlimit:4;stroke-dasharray:0,1.6776649;stroke-dashoffset:0"
       id="rect29957"
       width="238.125"
       height="18.520834"
       x="0"
       y="0" />
    <rect
       style="fill:#999999;stroke:#000000;stroke-width:0.15251499;stroke-miterlimit:4;stroke-dasharray:0,1.6776649;stroke-dashoffset:0"
       id="rect29981"
       width="238.125"
       height="18.520834"
       x="0"
       y="82.020836" />
    <text
       xml:space="preserve"
       transform="scale(0.26458333)"
       id="text31507"
       style="line-height:1.25;font-family:'Agency FB';font-size:0.66666667px;-inkscape-font-specification:'Agency FB';white-space:pre;shape-inside:url(#rect31509)" />
  </g>
</svg>
